<?xml version="1.0" standalone="no"?><!DOCTYPE svg PUBLIC "-//W3C//DTD SVG 1.1//EN" "http://www.w3.org/Graphics/SVG/1.1/DTD/svg11.dtd"><svg t="1768183329766" class="icon" viewBox="0 0 1024 1024" version="1.1" xmlns="http://www.w3.org/2000/svg" p-id="4700" xmlns:xlink="http://www.w3.org/1999/xlink" width="200" height="200"><path d="M959.4 512.1c-0.1-79.5-21.3-158.5-61.8-227-39.1-66.2-95.5-122.2-162.1-160.7-68.9-39.8-148.3-60.5-227.8-59.7-78.9 0.8-157.3 22.6-225 63.1-66 39.5-121.7 96.2-159.8 163.1C83.7 360 63.3 439.6 64.6 519.2c1.3 79.2 23.7 157.9 65.1 225.6 40 65.4 96.9 120.6 163.9 158 69.8 39 150 58.8 230 56.7 92-2.5 183.1-33.5 256.5-89.3 18-13.6 35-28.2 50.9-44.3 8.5-8.6 9.1-24 0-32.5-10-9.4-20.1-18.8-30.1-28.3-24.3-22.7-48.5-45.5-72.8-68.2-29.2-27.4-58.5-54.8-87.7-82.2-25.4-23.8-50.8-47.6-76.1-71.3-12.3-11.5-24.3-23.2-36.8-34.5l-0.5-0.5c-8.8-8.2-23.9-9.4-32.5 0-8.2 8.9-9.4 23.7 0 32.5 10 9.4 20.1 18.8 30.1 28.3 24.3 22.7 48.5 45.5 72.8 68.2 29.2 27.4 58.5 54.8 87.7 82.2 25.4 23.8 50.8 47.6 76.1 71.3 12.2 11.5 24.1 23.5 36.8 34.5l0.5 0.5v-32.5c-7.6 7.7-15.4 15.1-23.5 22.2-3.9 3.4-7.8 6.7-11.8 9.9l-6 4.8c-1.1 0.9-2.7 2.8 1-0.8-1.2 1.2-2.9 2.2-4.3 3.3-17.2 12.8-35.3 24.3-54.2 34.4-9.2 4.9-18.5 9.4-28 13.6-1.3 0.6-2.9 1.5-4.3 1.9 0.5-0.1 5-2 1.2-0.5-2.4 1-4.8 2-7.3 2.9-5.4 2.1-10.8 4.1-16.2 6-20.5 7.1-41.6 12.6-62.9 16.5-5.3 1-10.6 1.8-15.9 2.6-4.2 0.6 0.8 0 1.3-0.2-1.5 0.4-3.3 0.4-4.8 0.6-3 0.4-5.9 0.7-8.9 1-11.2 1.1-22.4 1.7-33.6 2-19.5 0.4-39-0.6-58.4-2.8-1.4-0.2-2.7-0.3-4.1-0.5-3.9-0.5 1.7 0.2 2 0.3-2.2-0.4-4.5-0.6-6.8-1-4.9-0.8-9.9-1.6-14.8-2.5-9.1-1.7-18.1-3.8-27.1-6.1-17.9-4.7-35.6-10.5-52.7-17.5-0.8-0.3-1.6-0.7-2.5-1-4.5-1.8 5.1 2.2 0.6 0.3-1.8-0.8-3.7-1.6-5.5-2.4-4.2-1.9-8.4-3.8-12.6-5.9-8.3-4-16.5-8.3-24.5-12.9-15.6-8.9-30.7-18.8-45-29.5-0.9-0.7-1.7-1.3-2.6-2-2.5-1.9 4.7 3.7 1 0.8-1.7-1.4-3.4-2.7-5.1-4.1-3.6-2.9-7.1-5.8-10.6-8.8-6.8-5.8-13.4-11.9-19.8-18.1-12.8-12.5-24.8-25.8-36-39.8-0.8-1-1.6-2.1-2.4-3.1-2.3-2.9 1 1.3 1.2 1.5-1.2-1.8-2.6-3.5-3.9-5.2-2.9-3.9-5.7-7.8-8.4-11.7-5.1-7.4-10-14.9-14.6-22.6-9.4-15.7-17.8-31.9-25.1-48.7-0.4-0.8-0.7-1.6-1.1-2.4-2-4.5 2.1 5.1 0.3 0.6-0.7-1.8-1.5-3.7-2.2-5.5-1.7-4.3-3.4-8.7-5-13.1-3.2-8.8-6-17.8-8.6-26.8-5.1-17.8-9-36-11.7-54.4-0.2-1.1-0.3-2.3-0.5-3.4-0.5-3.3 0.8 6.2 0.2 1.3-0.3-2.3-0.6-4.6-0.8-6.8-0.5-4.8-1-9.6-1.4-14.5-0.7-9.5-1.1-19.1-1.2-28.6-0.2-19.1 0.9-38.1 3.2-57.1 0.2-1.5 1-6.5-0.1 0.7 0.1-0.9 0.3-1.8 0.4-2.7 0.3-2.3 0.7-4.5 1-6.8 0.8-4.9 1.7-9.9 2.6-14.8 1.8-9.1 3.9-18.1 6.3-27 4.8-17.9 10.8-35.4 17.8-52.6 0.5-1.3 1.8-3.9-0.8 1.8 0.6-1.2 1-2.4 1.6-3.7 0.8-1.8 1.6-3.6 2.4-5.5 1.9-4.2 3.9-8.4 5.9-12.6 4.1-8.3 8.4-16.4 13.1-24.4 9-15.6 19-30.4 29.8-44.8 2.8-3.7-2.8 3.5-0.8 1 0.7-0.9 1.3-1.7 2-2.6 1.4-1.7 2.7-3.4 4.1-5.1 2.9-3.6 5.9-7.1 8.9-10.5 5.9-6.7 12-13.3 18.2-19.7 12.6-12.7 25.9-24.7 40-35.7 1.2-0.9 5.1-3.5-0.5 0.4 0.7-0.5 1.4-1.1 2.1-1.6 1.7-1.3 3.5-2.6 5.3-3.9 3.9-2.8 7.8-5.6 11.8-8.3 7.4-5.1 15-9.9 22.7-14.5 15.8-9.3 32.1-17.5 48.9-24.8 1.3-0.6 4-1.4-1.8 0.8 1.2-0.5 2.5-1 3.7-1.5 1.8-0.8 3.7-1.5 5.6-2.2 4.3-1.7 8.7-3.3 13.1-4.9 8.9-3.1 17.8-5.9 26.9-8.5 17.9-5 36.1-8.7 54.5-11.4 4.8-0.7-4.6 0.6-1.3 0.2 1.1-0.1 2.3-0.3 3.4-0.4 2.3-0.3 4.6-0.5 6.9-0.8 4.8-0.5 9.7-0.9 14.5-1.3 9.5-0.7 19.1-1 28.7-1 19.2-0.1 37.9 2 57 3.6-7.7-0.7 0.1 0 2 0.3 2.3 0.3 4.5 0.7 6.8 1.1 4.9 0.8 9.8 1.7 14.7 2.7 9.1 1.8 18.1 4 27 6.4 8.8 2.4 17.6 5.1 26.3 8.1 4.2 1.5 8.4 3 12.5 4.6 2.1 0.8 4.1 1.6 6.2 2.4 1.9 0.8 10 4.4 3.1 1.2 16.5 7.6 32.7 15.2 48.4 24.3 7.6 4.4 15 9.1 22.3 14 3.6 2.4 7.2 4.9 10.8 7.5 1.8 1.3 3.5 2.6 5.3 3.9 1.4 1 8.5 6.7 2.7 1.9 13.9 11.3 27.5 22.8 40.2 35.5 12.7 12.7 24.1 26.3 35.5 40.2-4.7-5.7 0.1 0.1 1.2 1.6 1.3 1.8 2.6 3.5 3.9 5.3 2.8 3.9 5.6 7.8 8.3 11.8 5 7.5 9.8 15.1 14.3 22.8 4.5 7.8 8.8 15.7 12.9 23.8 2 3.9 3.9 7.9 5.7 11.9l2.7 6c0.8 1.9 3.9 10.1 1.4 3 6.3 17.2 13 34.1 17.8 51.8 2.4 8.7 4.4 17.5 6.3 26.3 0.9 4.5 1.7 8.9 2.5 13.4 0.4 2.2 0.7 4.5 1.1 6.8 0.3 1.8 1.2 11.2 0.5 3.4 1.7 18.6 3.6 36.9 3.6 55.5 0 12 10.6 23.6 23 23 12.2-0.4 22.7-10 22.7-22.9z" p-id="4701"></path><path d="M744.2 515.2c-0.1-36.9-8.9-73-25.5-105.9-16-31.8-39.8-58.9-68.1-80.5-56.9-43.4-133.8-57.2-202.6-37.8-69.7 19.7-125.8 71.5-153.1 138.2-27.1 66.2-20.3 144.6 16.6 205.8 18.3 30.4 43.6 56.3 73.2 75.7 30.5 20 65.4 31.6 101.4 35.9 8.3 1 16.7 1.5 25.1 1.5 12 0 23.6-10.6 23-23-0.6-12.5-10.1-23-23-23-8.4 0-16.7-0.6-25.1-1.5-1.5-0.2-4.1-0.9 2 0.3-0.9-0.2-1.8-0.3-2.7-0.4l-5.4-0.9c-4-0.7-8-1.6-12-2.5-7.8-1.9-15.6-4.2-23.1-7-1.7-0.6-3.3-1.2-5-1.9-0.8-0.3-1.6-0.8-2.5-1 5.4 1.6 3.3 1.4 1.8 0.8-3.8-1.7-7.6-3.5-11.4-5.4-6.9-3.5-13.5-7.3-20-11.6-3.1-2-6.2-4.2-9.2-6.4-0.7-0.5-1.4-1.1-2.1-1.6-2.5-1.8 4.6 3.7 1 0.8-1.5-1.2-3.1-2.5-4.6-3.7-5.9-4.9-11.5-10.1-16.8-15.6-2.6-2.7-5.1-5.4-7.5-8.2-1.3-1.5-2.6-3-3.8-4.5-1.3-1.5-4.9-7.5-1.3-1.5-3.8-6.3-8.7-12.1-12.5-18.5-4.1-6.8-7.8-13.8-11.1-21-0.7-1.6-1.4-3.3-2.1-4.9 3.1 6.2 0.5 1-0.2-0.7-1.5-3.9-3-7.9-4.2-12-2.4-7.5-4.4-15.1-5.9-22.9-0.8-3.8-1.4-7.6-2-11.5-0.5-3 0.6 5.1 0.3 2l-0.3-2.7c-0.3-2.3-0.5-4.6-0.6-6.9-0.6-8.2-0.8-16.4-0.4-24.5 0.2-3.9 0.4-7.9 0.8-11.8 0.2-2 0.7-4.2 0.7-6.2 0 0.3-0.9 5.9-0.3 2 0.2-1.1 0.3-2.3 0.5-3.4 1.3-7.8 3-15.6 5.1-23.2 2.2-7.7 5.8-15.1 7.9-22.8-0.1 0.3-2.3 5.3-0.8 1.8 0.4-0.8 0.7-1.6 1.1-2.4 0.7-1.6 1.5-3.2 2.2-4.8 1.7-3.6 3.5-7.1 5.5-10.6 3.8-6.9 8-13.6 12.6-20.1 1-1.4 2.1-2.8 3.1-4.2 2.2-3-1 1.3-1.2 1.5 0.6-0.6 1.1-1.4 1.6-2.1 2.6-3.2 5.3-6.4 8.1-9.5 5.1-5.7 10.5-11.1 16.2-16.2 2.8-2.5 5.6-4.9 8.5-7.2 0.7-0.5 1.4-1.1 2.1-1.6 2.3-1.8-3.9 2.9-1.5 1.2 1.8-1.2 3.5-2.6 5.3-3.9 6.3-4.4 12.8-8.5 19.5-12.2 3.3-1.8 6.6-3.5 10-5.2 1.8-0.9 3.6-1.7 5.4-2.5 0.8-0.4 1.6-0.7 2.4-1.1 3.9-1.8-4.9 1.9-0.6 0.3 14.7-5.7 29.8-10.1 45.4-12.6 1.8-0.3 7.9-0.8 0.7-0.1 1.8-0.2 3.7-0.4 5.5-0.6 4.2-0.4 8.3-0.7 12.5-0.9 8.4-0.3 16.8-0.2 25.2 0.5 1.8 0.1 3.7 0.3 5.5 0.5l2.7 0.3c3.9 0.4-1.7-0.2-2-0.3 4.2 0.9 8.6 1.3 12.8 2.2 7.7 1.6 15.4 3.6 22.8 6 3.6 1.2 7.2 2.4 10.7 3.8 1.5 0.6 7.9 3.7 1.3 0.4 1.8 0.9 3.7 1.6 5.5 2.4 7 3.2 13.8 6.8 20.4 10.8 3.2 1.9 6.3 3.9 9.4 6 1.6 1.1 3.2 2.2 4.8 3.4 1.4 1 7.2 5.9 1.7 1.1 5.6 4.9 11.5 9.4 16.8 14.6 5.7 5.5 11 11.2 16 17.3 1.1 1.3 2.2 2.7 3.3 4.1 2.4 2.9-1-1.3-1.2-1.5 0.4 0.7 1.1 1.4 1.6 2.1 2.5 3.3 4.8 6.8 7.1 10.3 4.2 6.5 8 13.1 11.5 20 1.7 3.4 3.3 6.8 4.8 10.2 2.3 5.1-1.8-4.5 0.3 0.6 0.8 2.1 1.6 4.1 2.4 6.2 2.7 7.4 5 14.9 6.8 22.5 0.9 3.7 1.7 7.5 2.4 11.3 0.4 2 0.7 4 1 6.1 0.1 0.9 0.2 1.8 0.4 2.7-0.3-1.8-0.6-5.1-0.2-1.3 0.9 8.1 1.4 16.2 1.4 24.4 0 12 10.6 23.6 23 23 12.6-0.3 23.3-9.9 23.2-22.8z" p-id="4702"></path></svg>